<svg width="30" height="30" viewBox="0 0 30 30" xmlns="http://www.w3.org/2000/svg"><defs><linearGradient id="linear" x1="0%" y1="0%" x2="0%" y2="100%"><stop offset="0%" stop-color="#fff"/><stop offset="100%" stop-color="rgb(187, 187, 187)" stop-opacity="1"/></linearGradient></defs><g fill="none" fill-rule="evenodd"><path d="M29.45 14.662c0 8.06-6.582 14.594-14.7 14.594-8.118 0-14.7-6.534-14.7-14.594C.05 6.602 6.633.067 14.75.067c8.118 0 14.7 6.534 14.7 14.595" fill="#bd081c"/><path d="M14.733 1.686c-7.217 0-13.068 5.81-13.068 12.976 0 5.497 3.444 10.192 8.305 12.082-.114-1.026-.217-2.6.046-3.722.237-1.012 1.532-6.45 1.532-6.45s-.39-.777-.39-1.926c0-1.804 1.053-3.15 2.364-3.15 1.115 0 1.653.83 1.653 1.827 0 1.113-.714 2.777-1.082 4.32-.308 1.292.652 2.345 1.935 2.345 2.323 0 4.108-2.432 4.108-5.942 0-3.107-2.248-5.28-5.458-5.28-3.72 0-5.9 2.77-5.9 5.632 0 1.115.432 2.31.97 2.96.108.13.124.242.092.373-.1.41-.32 1.293-.363 1.473-.057.237-.19.288-.437.173-1.632-.754-2.653-3.124-2.653-5.027 0-4.094 2.996-7.853 8.635-7.853 4.533 0 8.056 3.208 8.056 7.494 0 4.473-2.84 8.072-6.78 8.072-1.325 0-2.57-.683-2.996-1.49 0 0-.655 2.478-.814 3.085-.295 1.127-1.092 2.54-1.625 3.4 1.223.377 2.523.58 3.87.58 7.217 0 13.068-5.81 13.068-12.975 0-7.167-5.85-12.976-13.067-12.976" fill="url(#linear)"/></g></svg>
